  <svg viewBox="0 0 1238 1361" fill="none" xmlns="http://www.w3.org/2000/svg">
                    <g clip-path="url(#clip0_2514_3)">
                    <path d="M1037.51 259.244C943.523 145.571 795.925 68.5724 643.982 56.2392C486.763 44.5787 334.498 122.975 264.687 253.803C225.341 327.36 220.593 414.457 239.914 491.026L239.943 491.255C251.674 537.551 272.46 579.895 299.504 612.816C301.69 615.335 303.676 618.112 305.574 620.201C305.862 620.631 306.35 620.802 306.638 621.231C308.019 622.92 309.6 624.351 310.952 625.81C352.393 669.251 399.587 695.639 399.587 695.639C405.419 699.325 411.392 702.293 417.337 705.032C593.273 687.963 746.425 771.946 762.365 896.97C778.745 1025.44 644.518 1148.39 462.601 1171.59C352.029 1185.68 249.389 1159.6 181.969 1108.05C177.456 1127.51 175.604 1144.07 186.076 1156.72C185.363 1158.44 202.18 1173.32 231.657 1192.4C283.514 1237.08 378.274 1301.93 506.892 1312.34C697.91 1327.62 958.792 1221.62 988.633 1004.04C1016.58 799.047 815.288 617.226 652.659 586.905C641.668 584.81 631.511 583.773 623.019 582.991C608.157 581.622 589.649 579.086 568.614 575.007C548.754 571.012 536.787 568.574 522.316 562.959C522.316 562.959 497.02 552.896 473.713 534.653C380.598 462.597 363.487 328.397 435.543 235.283C507.598 142.169 641.799 125.058 734.914 197.113C758.451 215.327 776.863 237.225 790.462 261.602C834.312 316.625 832.57 377.928 890.332 456.122C897.383 465.714 907.684 478.855 925.039 490.63C947.766 506.15 978.138 515.799 1019.33 515.21C990.848 482.006 976.572 450.489 988.848 415.12C1001.23 411.676 1013.32 405.938 1023.69 397.623C1064.73 363.014 1070.26 300.297 1037.51 259.244Z" fill="black" stroke="white" stroke-width="22" stroke-miterlimit="10"/>
                    <path d="M682.676 710.866C531.894 757.812 380.419 803.37 229.175 849.391C130.658 879.454 80.4744 952.532 76.3118 1069.09C75.3867 1094.06 80.2432 1100.08 102.444 1093.14C187.085 1066.08 272.189 1040.87 357.061 1015.2C430.833 992.771 504.605 970.339 578.146 947.907C677.819 917.612 716.208 855.172 711.814 735.38C710.889 707.629 704.645 703.929 682.676 710.866Z" fill="url(#paint0_linear_2514_3)" stroke="white" stroke-width="22" stroke-miterlimit="10"/>
                    <path d="M601.27 968.95L472.689 1008.03C444.707 1017.05 416.725 1025.84 388.511 1033.7L260.855 1072.55C208.359 1099.38 171.589 1144.71 152.857 1213.16C144.994 1242.07 147.075 1275.6 144.763 1306.82C147.307 1306.13 150.082 1305.66 152.857 1304.97L520.329 1193.04C591.095 1158.12 615.839 1100.07 612.371 992.77C611.677 976.351 608.439 969.875 601.27 968.95Z" fill="url(#paint1_linear_2514_3)" stroke="white" stroke-width="22" stroke-miterlimit="10"/>
                    <path d="M116.087 655.133C47.403 691.441 17.3391 752.031 12.0202 855.403C11.0951 870.667 12.7139 878.529 18.4954 881.305L701.869 673.171C747.89 645.883 777.722 601.712 789.516 535.341C794.142 508.515 789.516 478.682 789.054 450.469L116.087 655.133Z" fill="url(#paint2_linear_2514_3)" stroke="white" stroke-width="22" stroke-miterlimit="10"/>
                    <path d="M1139.07 175.472L1163.39 228.743L1221.56 222.08L1178.41 261.666L1202.73 314.937L1151.75 286.131L1108.6 325.717L1120.24 268.329L1069.26 239.523L1127.43 232.861L1139.07 175.472Z" fill="#914284"/>
                    </g>
                    <defs>
                    <linearGradient id="paint0_linear_2514_3" x1="76.3349" y1="901.683" x2="712.314" y2="901.683" gradientUnits="userSpaceOnUse">
                    <stop stop-color="#F7AB6D"/>
                    <stop offset="1" stop-color="#F3857D"/>
                    </linearGradient>
                    <linearGradient id="paint1_linear_2514_3" x1="144.594" y1="1137.95" x2="612.438" y2="1137.95" gradientUnits="userSpaceOnUse">
                    <stop stop-color="#7669AD"/>
                    <stop offset="1" stop-color="#A42767"/>
                    </linearGradient>
                    <linearGradient id="paint2_linear_2514_3" x1="11.6733" y1="665.753" x2="791.487" y2="665.753" gradientUnits="userSpaceOnUse">
                    <stop stop-color="#E5ACBF"/>
                    <stop offset="1" stop-color="#6CC7F0"/>
                    </linearGradient>
                    <clipPath id="clip0_2514_3">
                    <rect width="1237.49" height="1360.91" fill="white"/>
                    </clipPath>
                    </defs>
                </svg>